<svg width="50" height="50" viewBox="0 0 50 50" fill="none" xmlns="http://www.w3.org/2000/svg">
<path d="M38.625 8.68754L27.1667 4.39587C25.9792 3.95837 24.0417 3.95837 22.8542 4.39587L11.3959 8.68754C9.18754 9.52087 7.39587 12.1042 7.39587 14.4584V31.3334C7.39587 33.0209 8.50004 35.25 9.85421 36.25L21.3125 44.8125C23.3334 46.3334 26.6459 46.3334 28.6667 44.8125L40.125 36.25C41.4792 35.2292 42.5834 33.0209 42.5834 31.3334V14.4584C42.6042 12.1042 40.8125 9.52087 38.625 8.68754ZM26.5625 26.8125V32.2917C26.5625 33.1459 25.8542 33.8542 25 33.8542C24.1459 33.8542 23.4375 33.1459 23.4375 32.2917V26.8125C22.3848 26.4825 21.4642 25.8263 20.8089 24.9388C20.1535 24.0512 19.7973 22.9783 19.7917 21.875C19.7917 20.4937 20.3404 19.1689 21.3172 18.1922C22.2939 17.2154 23.6187 16.6667 25 16.6667C26.3814 16.6667 27.7061 17.2154 28.6829 18.1922C29.6596 19.1689 30.2084 20.4937 30.2084 21.875C30.2084 24.2084 28.6667 26.1459 26.5625 26.8125Z" fill="#F7DD43"/>
</svg>
